<?xml version="1.0" encoding="UTF-8" standalone="no"?>
<svg
   width="23"
   height="21"
   viewBox="0 0 23 21"
   fill="none"
   version="1.1"
   id="svg389"
   sodipodi:docname="Vector.svg"
   inkscape:version="1.2.2 (b0a8486, 2022-12-01)"
   xmlns:inkscape="http://www.inkscape.org/namespaces/inkscape"
   xmlns:sodipodi="http://sodipodi.sourceforge.net/DTD/sodipodi-0.dtd"
   xmlns="http://www.w3.org/2000/svg"
   xmlns:svg="http://www.w3.org/2000/svg">
  <defs
     id="defs393" />
  <sodipodi:namedview
     id="namedview391"
     pagecolor="#ffffff"
     bordercolor="#000000"
     borderopacity="0.25"
     inkscape:showpageshadow="2"
     inkscape:pageopacity="0.0"
     inkscape:pagecheckerboard="0"
     inkscape:deskcolor="#d1d1d1"
     showgrid="false"
     inkscape:zoom="42.52381"
     inkscape:cx="11.405375"
     inkscape:cy="8.4070549"
     inkscape:window-width="1463"
     inkscape:window-height="1043"
     inkscape:window-x="0"
     inkscape:window-y="25"
     inkscape:window-maximized="0"
     inkscape:current-layer="svg389" />
  <path
     d="m 12.7206,2.40551 -3e-4,2.5e-4 -0.8464,0.95156 -0.3736,0.41995 -0.3736,-0.41995 -0.8465,-0.95156 -5e-4,-6.2e-4 C 8.28247,0.152585 5.09737,-0.169649 2.9764,1.80201 0.482212,4.1245 0.344816,8.32357 2.58455,10.8495 l 8.31415,9.3653 c 0,10e-5 10e-5,10e-5 10e-5,10e-5 0.3382,0.3806 0.8605,0.3806 1.1987,0 l 10e-5,-10e-5 8.3143,-9.3655 10e-5,-10e-5 C 22.6556,8.32335 22.5183,4.12461 20.0243,1.80213 17.886246,0.17027129 15.545727,-0.20998796 12.7206,2.40551 Z m 0,0 C 14.7223,0.15233 17.9032,-0.169452 20.024,1.80187 19.536384,1.3063831 16.494104,-1.1431887 12.7206,2.40551 Z"
     stroke="#101010"
     id="path387"
     sodipodi:nodetypes="cccccccccccccccccccc" />
</svg>
